<svg><g><path d="M9.51174960123147 10.27113928061723 C21.02375152112659 11.325499670532778, 31.87293715441244 8.468504715085746, 40.58939645296302 11.54322336723509 M10.4298797805883 10.519325375477294 C21.003181415083397 10.912140445608577, 30.97819842829696 9.953239155927026, 39.78501302898435 9.737171247973723 M40.15791427256327 10.568806578750067 C41.09060480204155 19.601385712960155, 38.11615337497154 29.017478361709674, 39.1029699086167 40.11233902819494 M40.93167116683516 9.993117409033063 C40.66346681709569 18.10542498196513, 40.30942772035002 26.356350083787472, 39.41782835364414 39.93506296198291 M41.61512882103277 38.290820552203655 C29.704913782069063 38.99950622694597, 18.12925489764684 41.450216024077854, 10.53539862505573 41.260821815873506 M40.68088281522681 40.562308346614934 C33.43012667825075 39.134886776792165, 25.988271560505265 39.90702641462339, 10.586084116355037 40.57439621197 M10.825813653595002 39.63132213858533 C10.363512005659413 30.469141003480086, 10.221840863073977 20.65019834855088, 11.532827968426101 10.366702015025199 M10.740363110817007 39.03633448696613 C10.854913577109432 29.456903499603253, 10.759994772928682 17.7871097494687, 10.89098373372339 9.042285585730585" style="stroke: #000; stroke-width: 1; fill: none;"></path></g><g><path d="M58.23518011663708 11.789652600527381 C68.64508105983077 8.58072108270417, 79.56411827315927 11.305237179287554, 91.93410105107134 10.390680566080064 M59.68295730332591 9.325064854448051 C70.8070742224141 9.815603451466393, 82.21293386929119 9.19952946146617, 89.07574642066363 9.469699946959265 M91.14102027826472 9.682379869207526 C92.13069672265968 18.228835155335982, 89.94423885219713 29.48169033494198, 90.94036470281635 39.578027024490126 M89.06751322056698 10.421866013051961 C90.05322516366907 18.06920841732589, 90.74148302461737 23.48232083797763, 89.59595208242861 39.64241171890188 M89.70298660622312 41.44105672589305 C77.31502176413579 39.13336716274892, 68.43110800499018 38.068572852087065, 59.09098872059508 39.3985043036404 M89.53546076589542 39.253514317927454 C79.0909922763696 40.99048473340379, 68.73136826424019 39.91484267640091, 60.77253175338646 40.723334868422086 M58.16777232548469 39.56318699638261 C60.602666588040535 32.06633179202296, 61.12679086715866 22.215754428251273, 60.001895750341106 10.974996869547377 M59.9832571261142 39.899998759324944 C60.59060473959677 33.87353809616781, 59.0177739654262 27.861601510852, 59.43577524734712 9.204870905780325" style="stroke: #000; stroke-width: 1; fill: none;"></path></g><g><path d="M27.36237007142425 54.59029148980491 C31.215483443576623 54.653417750480706, 35.25460659974279 57.7986129095592, 38.013263544118715 60.95856054535905 C40.77192048849464 64.11850818115889, 43.438220761356106 69.20996674894864, 43.914311737679775 73.54997730460398 C44.39040271400344 77.88998786025932, 43.05346608007369 83.2883648987563, 40.86980940206072 86.99862387929106 C38.686152724047744 90.70888285982582, 34.65112194129311 94.712475883035, 30.812371669601944 95.81153118781259 C26.973621397910772 96.91058649259018, 21.698220713584895 95.49306782509544, 17.837307771913693 93.5929557079566 C13.97639483024249 91.69284359081777, 9.662901853228167 88.29633959283197, 7.646894019574731 84.41085848497957 C5.630886185921295 80.52537737712717, 4.669142348660693 74.68242886716088, 5.741260769993076 70.28006906084217 C6.813379191325459 65.87770925452345, 10.039569978291846 60.601365333195915, 14.07960454756903 57.99669964706726 C18.119639116846216 55.392033960938605, 26.808606072287542 54.79347828237996, 29.98146818565618 54.652074944070236 C33.154330299024814 54.510671605760514, 33.307108886205384 56.89207586757305, 33.11677722778085 57.148279617208914 M26.121396528485732 53.083183687222686 C30.466429303242403 53.03246360524519, 36.57086376887655 58.02361519222525, 39.48597761397013 61.05669878106385 C42.40109145906371 64.08978236990245, 43.52893776259296 67.07025279213074, 43.6120795990472 71.28168522025427 C43.69522143550144 75.4931176483778, 41.97767993658689 82.6587455388478, 39.98482863269554 86.32529334980502 C37.99197732880419 89.99184116076225, 35.28781447025497 91.76744087903431, 31.654971775699114 93.28097208599762 C28.022129081143255 94.79450329296093, 22.012997099609045 96.90792912794916, 18.18777246536039 95.40648059158488 C14.362547831111735 93.9050320552206, 10.488816643276628 88.47112037838886, 8.70362397020719 84.27228086781199 C6.91843129713775 80.07344135723511, 6.675813045599369 74.50542755156303, 7.476616426943753 70.2134435281236 C8.277419808288137 65.92145950468418, 10.411862701690422 61.38480630595494, 13.508444258273492 58.52037672717546 C16.60502581485656 55.65594714839598, 24.14633566780521 53.56831988334146, 26.056105766442172 53.02686605544673 C27.965875865079134 52.485412227552004, 25.20393062466302 54.49161289074619, 24.967064850095273 55.271653759807094" style="stroke: #000; stroke-width: 1; fill: none;"></path></g><g><path d="M64.41861340938833 70.1904965115479 C68.12841824395072 69.42469988639638, 74.85918783531514 69.52999760628491, 79.30154332001406 69.65772883105868 C83.74389880471298 69.78546005583244, 88.56744828408458 70.11429346467189, 91.07274631758187 70.95688386019053 C93.57804435107917 71.79947425570917, 94.5441919431652 73.38571779382845, 94.33333152099783 74.71327120417052 C94.12247109883046 76.0408246145126, 92.58940921409919 77.9288838443256, 89.80758378457764 78.922204322243 C87.0257583550561 79.91552480016041, 81.87404766633577 80.65896899296375, 77.64237894386851 80.67319407167498 C73.41071022140125 80.68741915038622, 68.11435554514361 79.54707587519154, 64.41757144977406 79.00755479451043 C60.720787354404514 78.46803371382931, 56.84527691185782 78.29869034481825, 55.46167437165124 77.4360675875883 C54.07807183144466 76.57344483035834, 53.43304303240102 75.14462083932864, 56.115956208534556 73.83181825113064 C58.798869384668095 72.51901566293265, 68.18890329877716 70.24266307661323, 71.55915342845248 69.5592520584003 C74.92940355812779 68.87584104018738, 76.29218577999885 69.7194586337732, 76.33745698658645 69.73135214185311 M77.23903163774699 68.85769019677339 C81.31226373177228 68.6392255901702, 85.9436484012546 69.48926224996525, 88.9340152194777 70.5801484661313 C91.9243820377008 71.67103468229736, 94.55090176218992 74.02269161146705, 95.18123254708553 75.40300749376975 C95.81156333198113 76.78332337607245, 95.28712075111628 78.20881184327516, 92.71599992885133 78.86204375994747 C90.14487910658639 79.51527567661978, 83.94114326708122 79.25520952476535, 79.75450761349589 79.3223989938036 C75.56787195991056 79.38958846284186, 71.33845524037942 79.65072448745586, 67.59618600733938 79.265180574177 C63.85391677429935 78.87963666089813, 59.557245689297964 78.01351117980938, 57.3008922152557 77.00913551413039 C55.04453874121344 76.0047598484514, 53.126915416757555 74.48700131309748, 54.05806516308581 73.23892658010307 C54.98921490941406 71.99085184710866, 59.44493235825472 70.22040357087772, 62.8877906932252 69.5206871161639 C66.33064902819568 68.82097066145008, 72.44131532508581 68.95759110455559, 74.71521517290871 69.04062785182009 C76.98911502073162 69.12366459908459, 76.1230481623379 70.02268596632479, 76.53118978016266 70.01890759975088" style="stroke: #000; stroke-width: 1; fill: none;"></path></g><g><path d="M10.167785478911885 108.49593417033462 C22.699025570605663 120.41561770028761, 35.5811249118476 133.9862771580775, 50.964509837102334 151.45850792673292 M9.321906251583052 110.837763120656 C19.88012081799323 118.89544411022861, 30.556626321853464 129.06380947640565, 50.81555311362987 150.8349274968656" style="stroke: #000; stroke-width: 1; fill: none;"></path></g><g><path d="M50.90566895146244 158.00861768064905 C52.154947731098055 166.125101770878, 53.64115987117615 169.50775484913592, 55.43102823107609 181.8281582934642 M50.96814396568922 159.65379973582625 C52.10253524026401 166.76859403713644, 53.506994484615355 172.5222881768575, 55.49308880513608 180.69929350845547 M54.10095798860127 178.53314226260974 C59.30169282050595 179.09689724014643, 62.46497997316554 180.6578801747018, 70.12362307243264 179.13525211482613 M55.61128917301558 180.66363712962038 C58.145694784695536 180.3580986314874, 60.641111055410946 179.35931033991983, 69.48222622276538 180.10745995937452 M70.37224763049137 179.62367645997696 C67.43571462033198 183.02446942635163, 66.08080003975125 183.29544172237632, 60.731241715054246 188.8529025247144 M70.07718056201699 179.5150685297655 C67.2143026154778 183.90199210827433, 62.59691350273555 186.53361845878447, 60.10531953591505 189.43585210305295 M61.41484212093928 190.65266784019454 C62.69488038080009 193.21961211776457, 63.85524645337594 195.92908374202872, 65.98371118362908 204.0771882929481 M60.62855831601356 190.300979086791 C61.86688746926443 196.31594160131033, 63.76983936559081 201.15381631448642, 64.72857942296406 204.22695505394438 M65.71970570134177 206.23733588941045 C60.60234423006865 201.21080841957178, 59.000754800391064 200.09688761763454, 50.85909527914366 193.37455423348598 M65.5078614402178 204.36387053558505 C59.66960132834858 201.88819144378064, 53.12127527480912 198.15577402324533, 50.4845749507356 194.97594508908026 M50.369497947859266 196.4381123805596 C46.93501041158383 197.22945908329964, 42.1040848951317 201.15161681457397, 34.39768966438103 205.14449215561436 M49.78805943231497 194.10446768252933 C45.6506637227803 198.32621235095976, 41.15821694489014 200.72277293770932, 35.028582833773584 204.74306261741262 M33.568020239190794 203.50240877942255 C36.39069343291134 202.24634025332244, 37.11626320049017 197.32825255575355, 38.94657301073803 191.47358856380845 M34.72630906504859 204.77291432908953 C36.708355137717135 202.30435268541723, 37.703643232557525 198.21686283698816, 40.15869505268748 189.94671640324256 M41.33004776006355 189.49662224694944 C34.923009733682264 185.9071924974826, 32.21276519864308 182.5734536147639, 29.474639777017224 180.0385088134437 M40.141422781337894 190.12852872427624 C37.24919968882372 185.90891258523538, 33.48886891348014 183.65746108943307, 30.568662774091578 180.13080791379218 M29.539364535344266 181.46724280066485 C36.56221768064935 180.71094003291574, 41.03177040562378 180.2643189175316, 44.3183897224323 179.50400997113343 M30.221513388256604 180.3020190311444 C34.64825876336325 180.5401078708271, 40.9025795788892 179.585638365761, 44.63233490596281 180.31445821466193 M46.0441988062918 181.47041440505936 C48.239794593913544 173.97522624897027, 47.046803803752454 166.05240933816222, 50.51903306181025 160.22426066348436 M45.16627402913363 180.9213633368515 C46.45314159151248 175.15097233343317, 46.96150844350376 169.74939755201308, 50.13198806233391 160.35134921736895" style="stroke: #000; stroke-width: 1; fill: none;"></path></g></svg>